<?xml version="1.0" encoding="UTF-8"?>
<svg width="36px" height="18px" viewBox="0 0 36 18" version="1.1" xmlns="http://www.w3.org/2000/svg" xmlns:xlink="http://www.w3.org/1999/xlink">
    <title>icon/game</title>
    <g id="页面-1" stroke="none" stroke-width="1" fill="none" fill-rule="evenodd">
        <g id="web_大雁final" transform="translate(-699.000000, -11551.000000)">
            <g id="09-25小时超长续航" transform="translate(0.000000, 10430.000000)">
                <g id="4point" transform="translate(697.000000, 1110.000000)">
                    <g id="编组" transform="translate(2.666667, 11.333333)">
                        <rect id="矩形" fill="#FFFFFF" x="0" y="0" width="32.526749" height="17.1193416" rx="0.855967078"></rect>
                        <rect id="矩形" fill="#000000" x="1.33333333" y="1.33333333" width="29.8666667" height="14.4181067" rx="0.855967078"></rect>
                        <g id="编组备份" transform="translate(2.139918, 2.139918)" fill="#FFFFFF" fill-rule="nonzero">
                            <path d="M6.92963139,11.8280468 L6.92963139,0.976195177 C6.92963139,0.739826395 6.73801663,0.548211638 6.50164785,0.548211638 L0.937861844,0.548211638 C0.701493062,0.548211638 0.509878305,0.739826395 0.509878305,0.976195177 L0.509878305,11.8280468 C0.509878305,12.0644155 0.701493062,12.2560303 0.937861844,12.2560303 L6.50164785,12.2560303 C6.73801663,12.2560303 6.92963139,12.0644155 6.92963139,11.8280468 Z" id="路径"></path>
                            <path d="M20.9465021,11.8280468 L20.9465021,0.976195177 C20.9465021,0.739826395 20.7548873,0.548211638 20.5185185,0.548211638 L14.9547325,0.548211638 C14.7183637,0.548211638 14.526749,0.739826395 14.526749,0.976195177 L14.526749,11.8280468 C14.526749,12.0644155 14.7183637,12.2560303 14.9547325,12.2560303 L20.5185185,12.2560303 C20.7548873,12.2560303 20.9465021,12.0644155 20.9465021,11.8280468 Z" id="路径备份-2"></path>
                            <path d="M13.3987674,11.8280468 L13.3987674,0.976195177 C13.3987674,0.739826395 13.2071527,0.548211638 12.9707839,0.548211638 L8.69094851,0.548211638 C8.45457973,0.548211638 8.26296497,0.739826395 8.26296497,0.976195177 L8.26296497,11.8280468 C8.26296497,12.0644155 8.45457973,12.2560303 8.69094851,12.2560303 L12.9707839,12.2560303 C13.2071527,12.2560303 13.3987674,12.0644155 13.3987674,11.8280468 Z" id="路径备份" transform="translate(10.830866, 6.402121) scale(-1, 1) translate(-10.830866, -6.402121) "></path>
                            <path d="M27.4156381,11.8280468 L27.4156381,0.976195177 C27.4156381,0.739826395 27.2240233,0.548211638 26.9876546,0.548211638 L22.7078192,0.548211638 C22.4714504,0.548211638 22.2798356,0.739826395 22.2798356,0.976195177 L22.2798356,11.8280468 C22.2798356,12.0644155 22.4714504,12.2560303 22.7078192,12.2560303 L26.9876546,12.2560303 C27.2240233,12.2560303 27.4156381,12.0644155 27.4156381,11.8280468 Z" id="路径备份-3" transform="translate(24.847737, 6.402121) scale(-1, 1) translate(-24.847737, -6.402121) "></path>
                        </g>
                        <rect id="矩形" fill="#FFFFFF" x="31.6707819" y="5.13580247" width="2.99588477" height="6.84773663" rx="0.855967078"></rect>
                    </g>
                </g>
            </g>
        </g>
    </g>
</svg>