<?xml version="1.0" encoding="UTF-8"?>
<svg width="32px" height="32px" viewBox="0 0 32 32" version="1.1" xmlns="http://www.w3.org/2000/svg" xmlns:xlink="http://www.w3.org/1999/xlink">
    <title>icon/phone</title>
    <g id="页面-1" stroke="none" stroke-width="1" fill="none" fill-rule="evenodd">
        <g id="web_大雁final" transform="translate(-958.000000, -11544.000000)">
            <g id="09-25小时超长续航" transform="translate(0.000000, 10430.000000)">
                <g id="4point" transform="translate(697.000000, 1110.000000)">
                    <g id="icon/phone" transform="translate(257.000000, 0.000000)">
                        <g id="编组" transform="translate(3.333333, 3.333333)">
                            <path d="M30.8976054,20.2303614 C31.1823853,19.0894949 31.333566,17.8957369 31.333566,16.6666687 C31.333566,8.56649237 24.7670756,2.00000203 16.6668993,2.00000203 C8.56672299,2.00000203 2.00023265,8.56649237 2.00023265,16.6666687 C2.00023265,19.9644527 3.08863324,23.0080271 4.92581444,25.4577719 M6.59101652,27.3244711 C6.9544714,27.6682011 7.3354999,27.9935409 7.73261312,28.2990016 M10.037065,29.7528727 C10.3999425,29.9370813 10.7715107,30.10664 11.1509914,30.2607705 M13.6313862,31.0188267 C14.0456205,31.1060018 14.4662929,31.1756964 14.8925958,31.227103 M17.5585877,31.3066744 C17.9813767,31.2813193 18.3993384,31.238054 18.8117243,31.1776269 M21.1894315,30.6228111 C21.532769,30.5116314 21.8705625,30.3881342 22.2022908,30.2528406" id="形状" stroke="#FFFFFF" stroke-width="1.33333333" stroke-linecap="round" transform="translate(16.666899, 16.653338) rotate(7.000000) translate(-16.666899, -16.653338) "></path>
                            <path d="M25.3351073,17.5451066 C24.8570138,17.5353663 24.4745296,17.1450242 24.4745296,16.6668489 C24.4745296,16.1886736 24.8570138,15.7983315 25.3351073,15.7885912 L26.6666667,15.7885912 C26.2409864,10.9380647 22.3954604,7.09252519 17.5447741,6.66666667 L17.5447741,7.99854199 C17.5448313,8.31228625 17.3774775,8.60222236 17.1057666,8.75911099 C16.8340557,8.91599963 16.4992776,8.91599963 16.2275667,8.75911099 C15.9558559,8.60222236 15.788502,8.31228625 15.7885592,7.99854199 L15.7885592,6.66666667 C10.9382483,7.09244495 7.09284812,10.9373976 6.66666667,15.7874977 L7.99822603,15.7874977 C8.23117776,15.787401 8.45462149,15.8798696 8.61937743,16.0445512 C8.78413337,16.2092327 8.87669803,16.4326299 8.87669801,16.6655732 C8.876698,17.1507222 8.4833927,17.5440131 7.99822603,17.5440131 L6.66666667,17.5440131 C7.09201268,22.3948238 10.9376227,26.2407547 15.7885592,26.6666667 L15.7885592,25.3347913 C15.7886476,24.8499061 16.1817638,24.4568759 16.6666667,24.4568759 C17.1515695,24.4568759 17.5446857,24.8499061 17.5447741,25.3347913 L17.5447741,26.6666667 C22.3953353,26.2408349 26.2408194,22.395491 26.6666667,17.5451066 L25.3351073,17.5451066 Z" id="形状" fill="#FFFFFF" fill-rule="nonzero"></path>
                            <polyline id="路径-2" stroke="#000000" stroke-width="1.33333333" stroke-linecap="round" stroke-linejoin="round" points="16.7306311 11 16.8501709 16.6666667 21.1750333 9.99653779"></polyline>
                        </g>
                        <text id="5" font-family="OpenSans-ExtraboldItalic, Open Sans" font-size="9.33333333" font-style="italic" font-weight="600" fill="#FFFFFF">
                            <tspan x="26.9596354" y="34.6666667">3</tspan>
                        </text>
                    </g>
                </g>
            </g>
        </g>
    </g>
</svg>