<?xml version="1.0" encoding="UTF-8"?>
<svg width="34px" height="34px" viewBox="0 0 34 34" version="1.1" xmlns="http://www.w3.org/2000/svg" xmlns:xlink="http://www.w3.org/1999/xlink">
    <title>icon/game备份 4</title>
    <g id="页面-1" stroke="none" stroke-width="1" fill="none" fill-rule="evenodd">
        <g id="web_大雁final" transform="translate(-1646.000000, -11543.000000)" fill="#FFFFFF" fill-rule="nonzero">
            <g id="09-25小时超长续航" transform="translate(0.000000, 10430.000000)">
                <g id="4point" transform="translate(697.000000, 1110.000000)">
                    <g id="4" transform="translate(946.000000, 0.000000)">
                        <g id="编组" transform="translate(3.333333, 3.333333)">
                            <path d="M16.6666667,0.333333333 C7.64601575,0.333333333 0.333333333,7.64601575 0.333333333,16.6666667 C0.333333333,25.6873176 7.64601575,33 16.6666667,33 C25.6873176,33 33,25.6873176 33,16.6666667 C33,7.64601575 25.6873176,0.333333333 16.6666667,0.333333333 Z M16.6666667,2.33333333 C24.5827481,2.33333333 31,8.75058525 31,16.6666667 C31,24.5827481 24.5827481,31 16.6666667,31 C8.75058525,31 2.33333333,24.5827481 2.33333333,16.6666667 C2.33333333,8.75058525 8.75058525,2.33333333 16.6666667,2.33333333 Z" id="椭圆形"></path>
                            <g id="musical-note" transform="translate(10.666667, 8.000000)">
                                <path d="M11.0280403,11.023442 C11.5664485,10.122029 11.9236104,8.98192818 11.9929105,7.85382843 C12.0368894,7.1297644 11.8756335,6.36969719 11.5264677,5.65496733 C10.9787306,4.53220138 10.0378489,3.90147894 9.12895177,3.29209172 C8.45061068,2.83738485 7.80958502,2.40801355 7.35646916,1.79462597 L7.27517485,1.68528297 C7.00730342,1.32525113 6.70478195,0.917215053 6.65680498,0.574518083 C6.608828,0.227820759 6.29431229,-0.0188677211 5.95047732,0.00113404756 C5.60131158,0.02513617 5.33077476,0.31449509 5.33077476,0.665192768 L5.33077476,12.5462434 C4.7723761,12.2075467 4.08470616,11.9995284 3.33173422,11.9995284 C1.49528232,11.9995284 0,13.1956341 0,14.6664308 C0,16.1372276 1.49528232,17.3333333 3.33173422,17.3333333 C5.16818613,17.3333333 6.66346845,16.1372276 6.66346845,14.6664308 L6.66346845,6.89507699 C7.66432141,7.27777749 9.30220195,8.25253035 9.75265242,10.5287316 C9.66869272,10.6527426 9.58873109,10.7860877 9.49544254,10.8927638 C9.25155959,11.1687882 9.27821346,11.5901588 9.55541375,11.8328469 C9.82994865,12.078202 10.2510799,12.048866 10.4949628,11.7728416 C10.6735438,11.5701571 10.8321343,11.3328027 10.9840614,11.0847808 C11.0000537,11.0661125 11.014755,11.0461107 11.0280403,11.023442 Z" id="路径"></path>
                            </g>
                        </g>
                    </g>
                </g>
            </g>
        </g>
    </g>
</svg>