<svg id="Layer_1" data-name="Layer 1" xmlns="http://www.w3.org/2000/svg" viewBox="0 0 728.2 146.97"><defs><style>.cls-1{isolation:isolate;}.cls-2{fill:#393939;}</style></defs><g id="页面-1"><g id="web_大雁final" data-name="web 大雁final"><g id="_15-潮玩设计" data-name="15-潮玩设计"><g id="bg"><g id="Design" class="cls-1"><g class="cls-1"><path class="cls-2" d="M129.57,57.23q0,27.34-9.67,47.41a69.18,69.18,0,0,1-28.08,30.71Q73.41,146,48.22,146h-46L32.4,3.23H73q27,0,41.75,14.11T129.57,57.23ZM54,114.36a29.67,29.67,0,0,0,19.19-6.84Q81.61,100.7,86.3,88T91,59.18Q91,47,85.72,40.68T71,34.38H64l-16.8,80Z" transform="translate(-2.22 -0.98)"/><path class="cls-2" d="M224.4,146H139.64L169.81,3.23h84.77l-6.35,31H201.65l-4.59,22.46h43.36l-7,31H190l-5.57,27h46.59Z" transform="translate(-2.22 -0.98)"/><path class="cls-2" d="M344.83,102.15q0,21.67-14.36,33.74t-40,12.06a83.74,83.74,0,0,1-20.31-2.39,53,53,0,0,1-16.5-7V104.4a85.37,85.37,0,0,0,18.8,8.69,61.63,61.63,0,0,0,19.19,3.51q7.22,0,10.93-3t3.71-8.6a10.72,10.72,0,0,0-1.17-4.93,20.36,20.36,0,0,0-3.32-4.59q-2.14-2.29-11.52-10.11-11.43-9.16-16.6-18.75a43.4,43.4,0,0,1-5.18-21A41.86,41.86,0,0,1,292.92,6.79a59.54,59.54,0,0,1,26.13-5.62q23.34,0,42,10.45l-13.18,29Q331.15,32,319.44,32q-6.26,0-9.62,2.74t-3.37,8a14.14,14.14,0,0,0,3.27,8.93Q313,55.86,322.17,62.8q11.52,8.49,17.09,17.87A41.28,41.28,0,0,1,344.83,102.15Z" transform="translate(-2.22 -0.98)"/><path class="cls-2" d="M362.62,146,392.79,3.23h38.77L401.39,146Z" transform="translate(-2.22 -0.98)"/><path class="cls-2" d="M502.57,62.41h59.57L545.83,140A163.77,163.77,0,0,1,495,148q-25.5,0-39.56-14.84T441.34,91Q441.34,65,452.08,44t29.45-32Q500.22,1,525,1q26,0,43.75,10.45L554.43,41.6q-14.94-8.77-29.89-8.78a38.24,38.24,0,0,0-22.8,7.08Q491.83,47,485.92,60.84A74.7,74.7,0,0,0,480,90.43q0,25.78,20.41,25.78a66.36,66.36,0,0,0,13-1.36l5-22.66H496Z" transform="translate(-2.22 -0.98)"/><path class="cls-2" d="M700.24,146H655.81L627.59,45.61h-.79Q624,74,621.24,86.43L608.64,146h-34L604.83,3.23h44.44l27.93,96h.87q2.83-23,5.57-36.23L696.43,3.23h34Z" transform="translate(-2.22 -0.98)"/></g></g></g></g></g></g></svg>