<svg id="Layer_1" data-name="Layer 1" xmlns="http://www.w3.org/2000/svg" xmlns:xlink="http://www.w3.org/1999/xlink" viewBox="0 0 1337.25 146.97"><defs><style>.cls-1{isolation:isolate;}.cls-2{fill:url(#linear-gradient);}.cls-3{fill:url(#linear-gradient-2);}.cls-4{fill:url(#linear-gradient-3);}.cls-5{fill:url(#linear-gradient-4);}.cls-6{fill:url(#linear-gradient-5);}.cls-7{fill:url(#linear-gradient-6);}.cls-8{fill:url(#linear-gradient-7);}.cls-9{fill:url(#linear-gradient-8);}.cls-10{fill:url(#linear-gradient-9);}.cls-11{fill:url(#linear-gradient-10);}.cls-12{fill:url(#linear-gradient-11);}</style><linearGradient id="linear-gradient" x1="25.99" y1="74.59" x2="1331.99" y2="75.59" gradientUnits="userSpaceOnUse"><stop offset="0" stop-color="#fc7308"/><stop offset="1" stop-color="#ffb649"/></linearGradient><linearGradient id="linear-gradient-2" x1="25.99" y1="74.53" x2="1331.99" y2="75.53" xlink:href="#linear-gradient"/><linearGradient id="linear-gradient-3" x1="25.99" y1="74.41" x2="1331.99" y2="75.41" xlink:href="#linear-gradient"/><linearGradient id="linear-gradient-4" x1="25.99" y1="74.31" x2="1331.99" y2="75.31" xlink:href="#linear-gradient"/><linearGradient id="linear-gradient-5" x1="25.99" y1="74.22" x2="1331.99" y2="75.22" xlink:href="#linear-gradient"/><linearGradient id="linear-gradient-6" x1="25.99" y1="74.06" x2="1331.99" y2="75.06" xlink:href="#linear-gradient"/><linearGradient id="linear-gradient-7" x1="25.99" y1="74.02" x2="1331.99" y2="75.02" xlink:href="#linear-gradient"/><linearGradient id="linear-gradient-8" x1="25.99" y1="73.92" x2="1331.99" y2="74.92" xlink:href="#linear-gradient"/><linearGradient id="linear-gradient-9" x1="25.99" y1="73.86" x2="1331.99" y2="74.86" xlink:href="#linear-gradient"/><linearGradient id="linear-gradient-10" x1="25.99" y1="73.77" x2="1331.99" y2="74.77" xlink:href="#linear-gradient"/><linearGradient id="linear-gradient-11" x1="25.99" y1="73.51" x2="1331.99" y2="74.51" xlink:href="#linear-gradient"/></defs><g id="页面-1"><g id="web_大雁final" data-name="web 大雁final"><g id="_15-潮玩设计" data-name="15-潮玩设计"><g id="bg"><g id="TrendsetING" class="cls-1"><g class="cls-1"><path class="cls-2" d="M46.23,146H8.05L31.19,34.77H.23L7,3.23H107.36l-6.93,31.54H69.38Z" transform="translate(-0.23 -0.98)"/><path class="cls-3" d="M148.39,94.05l-11,52H99.17L129.35,3.23h37.79q24.62,0,37.7,9.76t13.08,29.4q0,15.22-6.93,26.56t-20.6,17.28l21.87,50.4,3.91,9.37H174.56l-19-51.95Zm6.16-29h5q9.27,0,14.74-5.32t5.47-14.89q0-6.06-3.37-9.23c-2.24-2.12-5.52-3.17-9.81-3.17h-5.18Z" transform="translate(-0.23 -0.98)"/><path class="cls-4" d="M314.52,146H229.75L259.93,3.23H344.7l-6.35,31H291.77l-4.59,22.46h43.36l-7,31H280.15l-5.57,27h46.58Z" transform="translate(-0.23 -0.98)"/><path class="cls-5" d="M468.34,146H423.91L395.69,45.61h-.78Q392.07,74,389.34,86.43L376.74,146h-34L372.93,3.23h44.44l27.93,96h.87q2.83-23,5.57-36.23L464.53,3.23h34Z" transform="translate(-0.23 -0.98)"/><path class="cls-6" d="M628.71,57.23q0,27.34-9.67,47.41A69.14,69.14,0,0,1,591,135.36Q572.56,146,547.36,146h-46L531.54,3.23h40.63q26.94,0,41.74,14.11T628.71,57.23Zm-75.59,57.13a29.67,29.67,0,0,0,19.19-6.84q8.45-6.83,13.14-19.48t4.68-28.86q0-12.19-5.27-18.5t-14.74-6.3h-6.94l-16.8,80Z" transform="translate(-0.23 -0.98)"/><path class="cls-7" d="M731,102.15q0,21.69-14.36,33.74t-40,12.06a83.25,83.25,0,0,1-20.31-2.39,52.74,52.74,0,0,1-16.5-7V104.4a85.37,85.37,0,0,0,18.8,8.69,61.66,61.66,0,0,0,19.19,3.52q7.21,0,10.93-3t3.71-8.6a10.72,10.72,0,0,0-1.17-4.93,20.36,20.36,0,0,0-3.32-4.59q-2.14-2.29-11.52-10.1Q665,76.18,659.78,66.61a43.44,43.44,0,0,1-5.18-21A41.86,41.86,0,0,1,679.06,6.79a59.54,59.54,0,0,1,26.13-5.61q23.34,0,42,10.45L734,40.63Q717.29,32,705.58,32q-6.26,0-9.62,2.73t-3.37,8a14.14,14.14,0,0,0,3.27,8.93q3.27,4.15,12.45,11.09,11.52,8.49,17.09,17.87A41.28,41.28,0,0,1,731,102.15Z" transform="translate(-0.23 -0.98)"/><path class="cls-8" d="M833.72,146H749L779.13,3.23h84.76l-6.35,31H811l-4.59,22.46h43.36l-7,31H799.34l-5.56,27h46.58Z" transform="translate(-0.23 -0.98)"/><path class="cls-9" d="M920,146H881.78L904.92,34.77H874L880.7,3.23H981.09l-6.93,31.54h-31Z" transform="translate(-0.23 -0.98)"/><path class="cls-10" d="M972.71,146,1002.89,3.23h38.77L1011.48,146Z" transform="translate(-0.23 -0.98)"/><path class="cls-11" d="M1170.09,146h-44.44L1097.43,45.61h-.78q-2.84,28.41-5.57,40.82L1078.49,146h-34L1074.68,3.23h44.43l27.93,96h.88q2.83-23,5.57-36.23l12.79-59.76h34Z" transform="translate(-0.23 -0.98)"/><path class="cls-12" d="M1271.27,62.41h59.57L1314.54,140a163.88,163.88,0,0,1-50.88,7.91q-25.5,0-39.55-14.84T1210,91Q1210,65,1220.79,44t29.44-32q18.7-11,43.5-11,26,0,43.75,10.45l-14.35,30.18q-14.94-8.79-29.88-8.79a38.25,38.25,0,0,0-22.81,7.08q-9.92,7.08-15.82,20.94a74.7,74.7,0,0,0-5.91,29.59q0,25.78,20.42,25.78a66.26,66.26,0,0,0,13-1.36l5-22.66h-22.36Z" transform="translate(-0.23 -0.98)"/></g></g></g></g></g></g></svg>