<svg xmlns="http://www.w3.org/2000/svg" xmlns:xlink="http://www.w3.org/1999/xlink" width="458" height="90" viewBox="0 0 458 90"><defs><clipPath id="a"><path d="M0,90H458V0H0Z" fill="none"/></clipPath></defs><g transform="translate(-0.5)"><g transform="translate(0.5)"><path d="M54.559,38H7.441A7.437,7.437,0,0,1,0,30.583V7.418A7.438,7.438,0,0,1,7.441,0H54.559A7.438,7.438,0,0,1,62,7.418V30.583A7.437,7.437,0,0,1,54.559,38ZM7.441,2.983a4.447,4.447,0,0,0-4.45,4.435V30.583a4.446,4.446,0,0,0,4.45,4.432H54.559a4.445,4.445,0,0,0,4.447-4.432V7.418a4.446,4.446,0,0,0-4.447-4.435ZM43.85,29.019a7.447,7.447,0,0,1-5.266-2.136,7.476,7.476,0,1,1,5.266,2.136Zm0-11.832a4.324,4.324,0,0,0-4.4,4.442,4.4,4.4,0,1,0,8.795,0A4.323,4.323,0,0,0,43.85,17.186Zm-12.6,11.467H28.2V14.6h3.045v2.361a4.437,4.437,0,0,1,4.342-2.615v3.289c-.125-.009-.255-.014-.388-.014a3.673,3.673,0,0,0-3.955,3.948v7.081Zm-15.942,0H12.06V8.981h7.277A6.562,6.562,0,0,1,24,10.842a6.574,6.574,0,0,1,0,9.195,6.554,6.554,0,0,1-4.665,1.872h-4.03v6.744Zm0-16.637v6.856h4.03a3.254,3.254,0,0,0,3.3-3.428,3.254,3.254,0,0,0-3.3-3.428Z" transform="translate(396 4)" fill="#fefefe"/><path d="M16.746,38H0V0H15.528C21.62,0,26.392,4.555,26.392,10.369a9.346,9.346,0,0,1-4.213,7.925,10.261,10.261,0,0,1,4.22,3.542A9.551,9.551,0,0,1,28,27.253C28,33.279,23.057,38,16.746,38ZM5.157,20.956V33.277H16.746a6.161,6.161,0,0,0,0-12.321Zm0-16.232V16.34H15.528a5.724,5.724,0,0,0,5.764-5.807,5.794,5.794,0,0,0-5.764-5.81Z" transform="translate(194 4)" fill="#fefefe"/><path d="M26,0V29.239H20.893v-4.21C18.722,28.479,15.495,30,11.384,30,4.522,30,0,25.44,0,17.953V0H5.1V17.661c0,4.793,2.763,7.487,7.278,7.487,4.7,0,8.511-2.751,8.511-9.65V0Z" transform="translate(225 12)" fill="#fefefe"/><path d="M14.825,42A14.448,14.448,0,0,1,4.358,37.523,15.74,15.74,0,0,1,0,26.507,15.737,15.737,0,0,1,4.358,15.492a14.449,14.449,0,0,1,10.467-4.477,13.491,13.491,0,0,1,6.528,1.569A12.588,12.588,0,0,1,25.9,16.848V0H31V41.233H25.9V36.167a12.589,12.589,0,0,1-4.546,4.264A13.491,13.491,0,0,1,14.825,42Zm.644-26.037A10.229,10.229,0,0,0,5.1,26.507,10.228,10.228,0,0,0,15.469,37.049,10.257,10.257,0,0,0,25.9,26.507,10.257,10.257,0,0,0,15.469,15.963Z" transform="translate(255)" fill="#fefefe"/><path d="M23,22.161C23,27.642,18.233,31,11.858,31,5.9,31,1.727,28.172,0,24.106l4.467-2.535c.953,2.83,3.7,4.6,7.391,4.6,3.157,0,5.9-1.118,5.9-4.006,0-6.308-16.683-2.713-16.683-13.38C1.072,3.593,5.6,0,11.618,0,16.5,0,20.437,2.3,22.345,6.129L18,8.546a6.59,6.59,0,0,0-6.377-3.773c-2.682,0-5.3,1.3-5.3,3.948C6.317,15.028,23,11.317,23,22.161" transform="translate(289 11)" fill="#fefefe"/><path d="M5.369,38H0L14.153,0h5.7L34,38H28.634L25.542,29.48H8.463L5.369,38ZM16.976,6.026,10.2,24.754H23.807Z" transform="translate(326 4)" fill="#fefefe"/><path d="M0,90H458V0H0Z" fill="none"/><g clip-path="url(#a)"><path d="M6.1,42H.9V12.341H6.1V42ZM3.528,6.943a3.551,3.551,0,0,1-2.5-1.007A3.38,3.38,0,0,1,0,3.5,3.519,3.519,0,0,1,3.528,0,3.426,3.426,0,0,1,5.982,1.039,3.5,3.5,0,0,1,7,3.5,3.46,3.46,0,0,1,3.528,6.943Z" transform="translate(361)" fill="#fefefe"/><path d="M14,0V5.363c-4.321-.177-8.985,2.063-8.985,9.019V30H0V.53H5.015V5.481C6.856,1.355,10.373,0,14,0" transform="translate(373 12)" fill="#fefefe"/><path d="M4.715,11.041c0-3.962,3.667-6.621,7.093-6.621,4.161,0,6.748,2.932,6.748,7.653V30h4.715V11.5c0-3.423,1.894-7.079,7.209-7.079,4.133,0,6.806,3,6.806,7.653V30H42V12.074C42,4.626,37.806,0,31.054,0a11.455,11.455,0,0,0-9.56,4.712A9.738,9.738,0,0,0,12.671,0,10.509,10.509,0,0,0,4.715,3.268V.4H0V30H4.715Z" transform="translate(98 12)" fill="#fefefe"/><path d="M14.936,30C6.142,30,0,23.843,0,15.028,0,6.32,6.33,0,15.051,0a13.782,13.782,0,0,1,9.842,3.858A14.918,14.918,0,0,1,29,14.63v1.5H4.774a9.888,9.888,0,0,0,10.163,9.526,9.782,9.782,0,0,0,9.025-5.23l.26-.433L28.3,22.538l-.237.4C25.3,27.557,20.763,30,14.936,30Zm0-25.655a10.063,10.063,0,0,0-9.943,7.608H24.161A9.006,9.006,0,0,0,14.936,4.345Z" transform="translate(20 12)" fill="#fefefe"/><path d="M4.659,4.322H18V0H0V29H4.659Z" transform="translate(1 12)" fill="#fefefe"/><path d="M14.936,30C6.142,30,0,23.843,0,15.028,0,6.32,6.33,0,15.051,0a13.782,13.782,0,0,1,9.842,3.858A14.918,14.918,0,0,1,29,14.63v1.5H4.774a9.888,9.888,0,0,0,10.163,9.526,9.777,9.777,0,0,0,9.023-5.23l.262-.433L28.3,22.538l-.237.4C25.3,27.557,20.763,30,14.936,30Zm0-25.655a10.063,10.063,0,0,0-9.943,7.608H24.159A9,9,0,0,0,14.936,4.345Z" transform="translate(143 12)" fill="#fefefe"/><path d="M0,38H5V0H0Z" transform="translate(87 4)" fill="#fefefe"/><path d="M15.107,30a15.154,15.154,0,0,1-10.866-4.3A14.94,14.94,0,0,1,0,15.027a15.033,15.033,0,0,1,4.239-10.7A15.123,15.123,0,0,1,15.107,0a14.764,14.764,0,0,1,9.211,3.126V.451H29v29.1H24.318V26.886A14.612,14.612,0,0,1,15.107,30ZM14.876,4.625A10.046,10.046,0,0,0,4.74,15.027,10.017,10.017,0,0,0,14.876,25.373c5.993,0,10.02-4.158,10.02-10.346C24.9,8.805,20.869,4.625,14.876,4.625Z" transform="translate(52 12)" fill="#fefefe"/></g></g></g></svg>